<?xml version="1.0" encoding="UTF-8" standalone="no"?>
<!DOCTYPE svg PUBLIC "-//W3C//DTD SVG 1.1//EN"
 "http://www.w3.org/Graphics/SVG/1.1/DTD/svg11.dtd">
<!-- Generated by graphviz version 2.36.0 (20140111.2315)
 -->
<!-- Title: G Pages: 1 -->
<svg width="1008pt" height="484pt"
 viewBox="0.00 0.00 1008.00 484.00" xmlns="http://www.w3.org/2000/svg" xmlns:xlink="http://www.w3.org/1999/xlink">
<g id="graph0" class="graph" transform="scale(1 1) rotate(0) translate(4 480)">
<title>G</title>
<polygon fill="white" stroke="none" points="-4,4 -4,-480 1004,-480 1004,4 -4,4"/>
<!-- concept_map -->
<g id="node1" class="node"><title>concept_map</title>
<ellipse fill="none" stroke="black" cx="462" cy="-194" rx="57.2688" ry="18"/>
<text text-anchor="middle" x="462" y="-190.3" font-family="Times,serif" font-size="14.00">concept_map</text>
</g>
<!-- nodes -->
<g id="node2" class="node"><title>nodes</title>
<ellipse fill="none" stroke="black" cx="685" cy="-106" rx="31.2965" ry="18"/>
<text text-anchor="middle" x="685" y="-102.3" font-family="Times,serif" font-size="14.00">nodes</text>
</g>
<!-- concept_map&#45;&gt;nodes -->
<g id="edge4" class="edge"><title>concept_map&#45;&gt;nodes</title>
<path fill="none" stroke="black" d="M505.275,-182.15C514.711,-179.962 524.665,-177.787 534,-176 587.831,-165.693 610.768,-188.953 656,-158 664.734,-152.023 671.156,-142.496 675.703,-133.286"/>
<polygon fill="black" stroke="black" points="678.98,-134.529 679.782,-123.964 672.567,-131.722 678.98,-134.529"/>
<text text-anchor="middle" x="694" y="-146.3" font-family="Times,serif" font-size="14.00">contains</text>
</g>
<!-- edges -->
<g id="node3" class="node"><title>edges</title>
<ellipse fill="none" stroke="black" cx="167" cy="-106" rx="30.3206" ry="18"/>
<text text-anchor="middle" x="167" y="-102.3" font-family="Times,serif" font-size="14.00">edges</text>
</g>
<!-- concept_map&#45;&gt;edges -->
<g id="edge5" class="edge"><title>concept_map&#45;&gt;edges</title>
<path fill="none" stroke="black" d="M404.558,-192.82C355.886,-190.728 285.244,-183.031 229,-158 213.835,-151.251 199.362,-139.744 188.219,-129.366"/>
<polygon fill="black" stroke="black" points="190.343,-126.55 180.731,-122.094 185.466,-131.572 190.343,-126.55"/>
<text text-anchor="middle" x="252" y="-146.3" font-family="Times,serif" font-size="14.00">contains</text>
</g>
<!-- prerequisites -->
<g id="node7" class="node"><title>prerequisites</title>
<ellipse fill="none" stroke="black" cx="271" cy="-106" rx="55.3436" ry="18"/>
<text text-anchor="middle" x="271" y="-102.3" font-family="Times,serif" font-size="14.00">prerequisites</text>
</g>
<!-- concept_map&#45;&gt;prerequisites -->
<g id="edge6" class="edge"><title>concept_map&#45;&gt;prerequisites</title>
<path fill="none" stroke="black" d="M407.811,-187.878C363.891,-182.69 306.519,-173.228 289,-158 281.971,-151.89 277.687,-142.859 275.075,-134.087"/>
<polygon fill="black" stroke="black" points="278.421,-133.026 272.714,-124.1 271.609,-134.637 278.421,-133.026"/>
<text text-anchor="middle" x="372.5" y="-146.3" font-family="Times,serif" font-size="14.00">supports connecting content to</text>
</g>
<!-- generative -->
<g id="node8" class="node"><title>generative</title>
<ellipse fill="none" stroke="black" cx="458" cy="-106" rx="47.169" ry="18"/>
<text text-anchor="middle" x="458" y="-102.3" font-family="Times,serif" font-size="14.00">generative</text>
</g>
<!-- concept_map&#45;&gt;generative -->
<g id="edge7" class="edge"><title>concept_map&#45;&gt;generative</title>
<path fill="none" stroke="black" d="M461.191,-175.597C460.639,-163.746 459.898,-147.817 459.269,-134.292"/>
<polygon fill="black" stroke="black" points="462.756,-133.911 458.795,-124.084 455.763,-134.236 462.756,-133.911"/>
<text text-anchor="middle" x="505.5" y="-146.3" font-family="Times,serif" font-size="14.00">can be practiced</text>
</g>
<!-- supplantive -->
<g id="node9" class="node"><title>supplantive</title>
<ellipse fill="none" stroke="black" cx="575" cy="-106" rx="51.0191" ry="18"/>
<text text-anchor="middle" x="575" y="-102.3" font-family="Times,serif" font-size="14.00">supplantive</text>
</g>
<!-- concept_map&#45;&gt;supplantive -->
<g id="edge8" class="edge"><title>concept_map&#45;&gt;supplantive</title>
<path fill="none" stroke="black" d="M506.913,-182.654C522.328,-177.331 538.762,-169.465 551,-158 558.056,-151.389 563.241,-142.283 566.948,-133.594"/>
<polygon fill="black" stroke="black" points="570.269,-134.706 570.525,-124.115 563.72,-132.234 570.269,-134.706"/>
<text text-anchor="middle" x="607.5" y="-146.3" font-family="Times,serif" font-size="14.00">can be practiced</text>
</g>
<!-- meaningful_learning -->
<g id="node10" class="node"><title>meaningful_learning</title>
<ellipse fill="none" stroke="black" cx="851" cy="-106" rx="84.2388" ry="18"/>
<text text-anchor="middle" x="851" y="-102.3" font-family="Times,serif" font-size="14.00">meaningful_learning</text>
</g>
<!-- concept_map&#45;&gt;meaningful_learning -->
<g id="edge9" class="edge"><title>concept_map&#45;&gt;meaningful_learning</title>
<path fill="none" stroke="black" d="M504.829,-181.88C514.381,-179.682 524.496,-177.572 534,-176 616.376,-162.375 640.483,-180.102 721,-158 737.105,-153.579 739.584,-148.422 755,-142 768.97,-136.18 784.291,-130.352 798.51,-125.168"/>
<polygon fill="black" stroke="black" points="799.93,-128.376 808.148,-121.69 797.554,-121.792 799.93,-128.376"/>
<text text-anchor="middle" x="812.5" y="-146.3" font-family="Times,serif" font-size="14.00">often associated with</text>
</g>
<!-- hierarchical -->
<g id="node4" class="node"><title>hierarchical</title>
<ellipse fill="none" stroke="black" cx="51" cy="-18" rx="51.4931" ry="18"/>
<text text-anchor="middle" x="51" y="-14.3" font-family="Times,serif" font-size="14.00">hierarchical</text>
</g>
<!-- edges&#45;&gt;hierarchical -->
<g id="edge1" class="edge"><title>edges&#45;&gt;hierarchical</title>
<path fill="none" stroke="black" d="M148.875,-91.5625C130.536,-77.9666 101.89,-56.7285 80.3174,-40.7353"/>
<polygon fill="black" stroke="black" points="82.2589,-37.8178 72.1413,-34.6737 78.09,-43.441 82.2589,-37.8178"/>
<text text-anchor="middle" x="138" y="-58.3" font-family="Times,serif" font-size="14.00">can be</text>
</g>
<!-- crosslinks -->
<g id="node5" class="node"><title>crosslinks</title>
<ellipse fill="none" stroke="black" cx="167" cy="-18" rx="46.2191" ry="18"/>
<text text-anchor="middle" x="167" y="-14.3" font-family="Times,serif" font-size="14.00">crosslinks</text>
</g>
<!-- edges&#45;&gt;crosslinks -->
<g id="edge2" class="edge"><title>edges&#45;&gt;crosslinks</title>
<path fill="none" stroke="black" d="M167,-87.5966C167,-75.7459 167,-59.8169 167,-46.2917"/>
<polygon fill="black" stroke="black" points="170.5,-46.084 167,-36.084 163.5,-46.084 170.5,-46.084"/>
<text text-anchor="middle" x="185" y="-58.3" font-family="Times,serif" font-size="14.00">can be</text>
</g>
<!-- linking_verbs -->
<g id="node6" class="node"><title>linking_verbs</title>
<ellipse fill="none" stroke="black" cx="290" cy="-18" rx="59.2173" ry="18"/>
<text text-anchor="middle" x="290" y="-14.3" font-family="Times,serif" font-size="14.00">linking_verbs</text>
</g>
<!-- edges&#45;&gt;linking_verbs -->
<g id="edge3" class="edge"><title>edges&#45;&gt;linking_verbs</title>
<path fill="none" stroke="black" d="M185.949,-91.751C205.429,-78.131 236.08,-56.7001 259.079,-40.6199"/>
<polygon fill="black" stroke="black" points="261.289,-43.345 267.479,-34.7464 257.278,-37.6081 261.289,-43.345"/>
<text text-anchor="middle" x="260" y="-58.3" font-family="Times,serif" font-size="14.00">contain</text>
</g>
<!-- flashcard -->
<g id="node11" class="node"><title>flashcard</title>
<ellipse fill="none" stroke="black" cx="642" cy="-282" rx="42.3456" ry="18"/>
<text text-anchor="middle" x="642" y="-278.3" font-family="Times,serif" font-size="14.00">flashcard</text>
</g>
<!-- flashcard&#45;&gt;concept_map -->
<g id="edge14" class="edge"><title>flashcard&#45;&gt;concept_map</title>
<path fill="none" stroke="black" d="M602.459,-275.205C555.153,-267.914 481.145,-255.232 472,-246 465.86,-239.802 462.932,-231.011 461.665,-222.47"/>
<polygon fill="black" stroke="black" points="465.142,-222.048 460.839,-212.366 458.166,-222.618 465.142,-222.048"/>
<text text-anchor="middle" x="533" y="-234.3" font-family="Times,serif" font-size="14.00">more meaningful than</text>
</g>
<!-- flashcard&#45;&gt;meaningful_learning -->
<g id="edge13" class="edge"><title>flashcard&#45;&gt;meaningful_learning</title>
<path fill="none" stroke="black" d="M673.708,-269.891C680.962,-267.666 688.691,-265.541 696,-264 731.442,-256.526 832.071,-271.292 858,-246 891.307,-213.511 881.452,-187.098 870,-142 869.242,-139.014 868.172,-136.007 866.921,-133.076"/>
<polygon fill="black" stroke="black" points="870.049,-131.505 862.475,-124.098 863.776,-134.612 870.049,-131.505"/>
<text text-anchor="middle" x="940.5" y="-190.3" font-family="Times,serif" font-size="14.00">actually also provides</text>
</g>
<!-- question -->
<g id="node12" class="node"><title>question</title>
<ellipse fill="none" stroke="black" cx="583" cy="-194" rx="39.9464" ry="18"/>
<text text-anchor="middle" x="583" y="-190.3" font-family="Times,serif" font-size="14.00">question</text>
</g>
<!-- flashcard&#45;&gt;question -->
<g id="edge10" class="edge"><title>flashcard&#45;&gt;question</title>
<path fill="none" stroke="black" d="M623.994,-265.334C618.106,-259.634 611.842,-252.89 607,-246 601.662,-238.404 596.984,-229.434 593.21,-221.151"/>
<polygon fill="black" stroke="black" points="596.381,-219.666 589.21,-211.867 589.952,-222.436 596.381,-219.666"/>
<text text-anchor="middle" x="630" y="-234.3" font-family="Times,serif" font-size="14.00">contains</text>
</g>
<!-- answer -->
<g id="node13" class="node"><title>answer</title>
<ellipse fill="none" stroke="black" cx="677" cy="-194" rx="35.6194" ry="18"/>
<text text-anchor="middle" x="677" y="-190.3" font-family="Times,serif" font-size="14.00">answer</text>
</g>
<!-- flashcard&#45;&gt;answer -->
<g id="edge11" class="edge"><title>flashcard&#45;&gt;answer</title>
<path fill="none" stroke="black" d="M648.915,-264.009C653.852,-251.877 660.591,-235.32 666.229,-221.465"/>
<polygon fill="black" stroke="black" points="669.572,-222.537 670.099,-211.956 663.088,-219.898 669.572,-222.537"/>
<text text-anchor="middle" x="686" y="-234.3" font-family="Times,serif" font-size="14.00">contains</text>
</g>
<!-- rote_learning -->
<g id="node14" class="node"><title>rote_learning</title>
<ellipse fill="none" stroke="black" cx="789" cy="-194" rx="57.2688" ry="18"/>
<text text-anchor="middle" x="789" y="-190.3" font-family="Times,serif" font-size="14.00">rote_learning</text>
</g>
<!-- flashcard&#45;&gt;rote_learning -->
<g id="edge12" class="edge"><title>flashcard&#45;&gt;rote_learning</title>
<path fill="none" stroke="black" d="M669.756,-268.371C683.056,-262.055 699.083,-254.052 713,-246 728.457,-237.057 744.989,-226.137 758.674,-216.7"/>
<polygon fill="black" stroke="black" points="761.012,-219.337 767.216,-210.748 757.01,-213.593 761.012,-219.337"/>
<text text-anchor="middle" x="796.5" y="-234.3" font-family="Times,serif" font-size="14.00">often associated with</text>
</g>
<!-- flashmap -->
<g id="node15" class="node"><title>flashmap</title>
<ellipse fill="none" stroke="black" cx="500" cy="-370" rx="43.319" ry="18"/>
<text text-anchor="middle" x="500" y="-366.3" font-family="Times,serif" font-size="14.00">flashmap</text>
</g>
<!-- flashmap&#45;&gt;concept_map -->
<g id="edge15" class="edge"><title>flashmap&#45;&gt;concept_map</title>
<path fill="none" stroke="black" d="M492.535,-351.908C482.773,-328.533 466.187,-285.033 460,-246 458.779,-238.299 458.634,-229.865 458.969,-222.114"/>
<polygon fill="black" stroke="black" points="462.463,-222.318 459.668,-212.098 455.48,-221.83 462.463,-222.318"/>
<text text-anchor="middle" x="516" y="-278.3" font-family="Times,serif" font-size="14.00">visualisation of</text>
</g>
<!-- flashmap&#45;&gt;flashcard -->
<g id="edge16" class="edge"><title>flashmap&#45;&gt;flashcard</title>
<path fill="none" stroke="black" d="M495.501,-352.093C493.675,-341.219 493.487,-327.414 501,-318 512.312,-303.825 555.408,-294.531 591.009,-289.107"/>
<polygon fill="black" stroke="black" points="591.902,-292.515 601.295,-287.613 590.896,-285.587 591.902,-292.515"/>
<text text-anchor="middle" x="564.5" y="-322.3" font-family="Times,serif" font-size="14.00">learning mechanism of</text>
</g>
<!-- system -->
<g id="node16" class="node"><title>system</title>
<ellipse fill="none" stroke="black" cx="642" cy="-458" rx="35.6194" ry="18"/>
<text text-anchor="middle" x="642" y="-454.3" font-family="Times,serif" font-size="14.00">system</text>
</g>
<!-- system&#45;&gt;flashcard -->
<g id="edge17" class="edge"><title>system&#45;&gt;flashcard</title>
<path fill="none" stroke="black" d="M642,-439.999C642,-409.853 642,-346.79 642,-310.43"/>
<polygon fill="black" stroke="black" points="645.5,-310.07 642,-300.07 638.5,-310.07 645.5,-310.07"/>
<text text-anchor="middle" x="658" y="-366.3" font-family="Times,serif" font-size="14.00">offers</text>
</g>
<!-- system&#45;&gt;flashmap -->
<g id="edge18" class="edge"><title>system&#45;&gt;flashmap</title>
<path fill="none" stroke="black" d="M620.124,-443.751C596.639,-429.528 559.089,-406.786 532.223,-390.516"/>
<polygon fill="black" stroke="black" points="533.925,-387.454 523.558,-385.267 530.298,-393.442 533.925,-387.454"/>
<text text-anchor="middle" x="600" y="-410.3" font-family="Times,serif" font-size="14.00">offers</text>
</g>
<!-- scheduling -->
<g id="node17" class="node"><title>scheduling</title>
<ellipse fill="none" stroke="black" cx="741" cy="-370" rx="48.6179" ry="18"/>
<text text-anchor="middle" x="741" y="-366.3" font-family="Times,serif" font-size="14.00">scheduling</text>
</g>
<!-- system&#45;&gt;scheduling -->
<g id="edge19" class="edge"><title>system&#45;&gt;scheduling</title>
<path fill="none" stroke="black" d="M659.244,-442.02C674.618,-428.665 697.343,-408.925 714.934,-393.643"/>
<polygon fill="black" stroke="black" points="717.357,-396.175 722.611,-386.974 712.766,-390.89 717.357,-396.175"/>
<text text-anchor="middle" x="713" y="-410.3" font-family="Times,serif" font-size="14.00">uses</text>
</g>
<!-- pimsleur -->
<g id="node18" class="node"><title>pimsleur</title>
<ellipse fill="none" stroke="black" cx="831" cy="-282" rx="42.3701" ry="18"/>
<text text-anchor="middle" x="831" y="-278.3" font-family="Times,serif" font-size="14.00">pimsleur</text>
</g>
<!-- scheduling&#45;&gt;pimsleur -->
<g id="edge20" class="edge"><title>scheduling&#45;&gt;pimsleur</title>
<path fill="none" stroke="black" d="M757.928,-352.824C771.717,-339.648 791.361,-320.877 806.809,-306.116"/>
<polygon fill="black" stroke="black" points="809.64,-308.252 814.452,-298.813 804.804,-303.191 809.64,-308.252"/>
<text text-anchor="middle" x="807" y="-322.3" font-family="Times,serif" font-size="14.00">uses</text>
</g>
<!-- leitner -->
<g id="node19" class="node"><title>leitner</title>
<ellipse fill="none" stroke="black" cx="738" cy="-282" rx="33.2209" ry="18"/>
<text text-anchor="middle" x="738" y="-278.3" font-family="Times,serif" font-size="14.00">leitner</text>
</g>
<!-- scheduling&#45;&gt;leitner -->
<g id="edge21" class="edge"><title>scheduling&#45;&gt;leitner</title>
<path fill="none" stroke="black" d="M740.393,-351.597C739.98,-339.746 739.424,-323.817 738.952,-310.292"/>
<polygon fill="black" stroke="black" points="742.443,-309.956 738.596,-300.084 735.447,-310.2 742.443,-309.956"/>
<text text-anchor="middle" x="752" y="-322.3" font-family="Times,serif" font-size="14.00">uses</text>
</g>
</g>
</svg>
