<?xml version="1.0" encoding="UTF-8" standalone="no"?>
<!DOCTYPE svg PUBLIC "-//W3C//DTD SVG 1.1//EN"
 "http://www.w3.org/Graphics/SVG/1.1/DTD/svg11.dtd">
<!-- Generated by graphviz version 2.36.0 (20140111.2315)
 -->
<!-- Title: G Pages: 1 -->
<svg width="224pt" height="4148pt"
 viewBox="0.00 0.00 224.00 4148.00" xmlns="http://www.w3.org/2000/svg" xmlns:xlink="http://www.w3.org/1999/xlink">
<g id="graph0" class="graph" transform="scale(1 1) rotate(0) translate(4 4144)">
<title>G</title>
<polygon fill="white" stroke="none" points="-4,4 -4,-4144 220,-4144 220,4 -4,4"/>
<!-- relevance -->
<g id="node1" class="node"><title>relevance</title>
<polygon fill="none" stroke="black" points="216,-36 0,-36 0,-0 216,-0 216,-36"/>
<text text-anchor="middle" x="108" y="-14.3" font-family="Times,serif" font-size="14.00">relevance</text>
</g>
<!-- complex_tasks -->
<g id="node2" class="node"><title>complex_tasks</title>
<polygon fill="none" stroke="black" points="216,-90 0,-90 0,-54 216,-54 216,-90"/>
<text text-anchor="middle" x="108" y="-68.3" font-family="Times,serif" font-size="14.00">complex_tasks</text>
</g>
<!-- memory_tasks -->
<g id="node3" class="node"><title>memory_tasks</title>
<polygon fill="none" stroke="black" points="216,-144 0,-144 0,-108 216,-108 216,-144"/>
<text text-anchor="middle" x="108" y="-122.3" font-family="Times,serif" font-size="14.00">memory_tasks</text>
</g>
<!-- flashcards -->
<g id="node4" class="node"><title>flashcards</title>
<polygon fill="none" stroke="black" points="216,-198 0,-198 0,-162 216,-162 216,-198"/>
<text text-anchor="middle" x="108" y="-176.3" font-family="Times,serif" font-size="14.00">flashcards</text>
</g>
<!-- repetition -->
<g id="node5" class="node"><title>repetition</title>
<polygon fill="none" stroke="black" points="216,-252 0,-252 0,-216 216,-216 216,-252"/>
<text text-anchor="middle" x="108" y="-230.3" font-family="Times,serif" font-size="14.00">repetition</text>
</g>
<!-- massed_items -->
<g id="node6" class="node"><title>massed_items</title>
<polygon fill="none" stroke="black" points="216,-306 0,-306 0,-270 216,-270 216,-306"/>
<text text-anchor="middle" x="108" y="-284.3" font-family="Times,serif" font-size="14.00">massed_items</text>
</g>
<!-- spaced_items -->
<g id="node7" class="node"><title>spaced_items</title>
<polygon fill="none" stroke="black" points="216,-360 0,-360 0,-324 216,-324 216,-360"/>
<text text-anchor="middle" x="108" y="-338.3" font-family="Times,serif" font-size="14.00">spaced_items</text>
</g>
<!-- absolute_spacing -->
<g id="node8" class="node"><title>absolute_spacing</title>
<polygon fill="none" stroke="black" points="216,-414 0,-414 0,-378 216,-378 216,-414"/>
<text text-anchor="middle" x="108" y="-392.3" font-family="Times,serif" font-size="14.00">absolute_spacing</text>
</g>
<!-- relative_spacing -->
<g id="node9" class="node"><title>relative_spacing</title>
<polygon fill="none" stroke="black" points="216,-468 0,-468 0,-432 216,-432 216,-468"/>
<text text-anchor="middle" x="108" y="-446.3" font-family="Times,serif" font-size="14.00">relative_spacing</text>
</g>
<!-- primacy_effect -->
<g id="node10" class="node"><title>primacy_effect</title>
<polygon fill="none" stroke="black" points="216,-522 0,-522 0,-486 216,-486 216,-522"/>
<text text-anchor="middle" x="108" y="-500.3" font-family="Times,serif" font-size="14.00">primacy_effect</text>
</g>
<!-- recency_effect -->
<g id="node11" class="node"><title>recency_effect</title>
<polygon fill="none" stroke="black" points="216,-576 0,-576 0,-540 216,-540 216,-576"/>
<text text-anchor="middle" x="108" y="-554.3" font-family="Times,serif" font-size="14.00">recency_effect</text>
</g>
<!-- zero_sum_game -->
<g id="node12" class="node"><title>zero_sum_game</title>
<polygon fill="none" stroke="black" points="216,-630 0,-630 0,-594 216,-594 216,-630"/>
<text text-anchor="middle" x="108" y="-608.3" font-family="Times,serif" font-size="14.00">zero_sum_game</text>
</g>
<!-- spacing_effect -->
<g id="node13" class="node"><title>spacing_effect</title>
<polygon fill="none" stroke="black" points="216,-684 0,-684 0,-648 216,-648 216,-684"/>
<text text-anchor="middle" x="108" y="-662.3" font-family="Times,serif" font-size="14.00">spacing_effect</text>
</g>
<!-- long_term_potentiation -->
<g id="node14" class="node"><title>long_term_potentiation</title>
<polygon fill="none" stroke="black" points="216,-738 0,-738 0,-702 216,-702 216,-738"/>
<text text-anchor="middle" x="108" y="-716.3" font-family="Times,serif" font-size="14.00">long_term_potentiation</text>
</g>
<!-- power_law_learning -->
<g id="node15" class="node"><title>power_law_learning</title>
<polygon fill="none" stroke="black" points="216,-792 0,-792 0,-756 216,-756 216,-792"/>
<text text-anchor="middle" x="108" y="-770.3" font-family="Times,serif" font-size="14.00">power_law_learning</text>
</g>
<!-- power_law_forgetting -->
<g id="node16" class="node"><title>power_law_forgetting</title>
<polygon fill="none" stroke="black" points="216,-846 0,-846 0,-810 216,-810 216,-846"/>
<text text-anchor="middle" x="108" y="-824.3" font-family="Times,serif" font-size="14.00">power_law_forgetting</text>
</g>
<!-- review_schedule -->
<g id="node17" class="node"><title>review_schedule</title>
<polygon fill="none" stroke="black" points="216,-900 0,-900 0,-864 216,-864 216,-900"/>
<text text-anchor="middle" x="108" y="-878.3" font-family="Times,serif" font-size="14.00">review_schedule</text>
</g>
<!-- traditional_schedule -->
<g id="node18" class="node"><title>traditional_schedule</title>
<polygon fill="none" stroke="black" points="216,-954 0,-954 0,-918 216,-918 216,-954"/>
<text text-anchor="middle" x="108" y="-932.3" font-family="Times,serif" font-size="14.00">traditional_schedule</text>
</g>
<!-- interspersal_schedule -->
<g id="node19" class="node"><title>interspersal_schedule</title>
<polygon fill="none" stroke="black" points="216,-1008 0,-1008 0,-972 216,-972 216,-1008"/>
<text text-anchor="middle" x="108" y="-986.3" font-family="Times,serif" font-size="14.00">interspersal_schedule</text>
</g>
<!-- high_p_schedule -->
<g id="node20" class="node"><title>high_p_schedule</title>
<polygon fill="none" stroke="black" points="216,-1062 0,-1062 0,-1026 216,-1026 216,-1062"/>
<text text-anchor="middle" x="108" y="-1040.3" font-family="Times,serif" font-size="14.00">high_p_schedule</text>
</g>
<!-- active_retrieval -->
<g id="node21" class="node"><title>active_retrieval</title>
<polygon fill="none" stroke="black" points="216,-1116 0,-1116 0,-1080 216,-1080 216,-1116"/>
<text text-anchor="middle" x="108" y="-1094.3" font-family="Times,serif" font-size="14.00">active_retrieval</text>
</g>
<!-- block_size -->
<g id="node22" class="node"><title>block_size</title>
<polygon fill="none" stroke="black" points="216,-1170 0,-1170 0,-1134 216,-1134 216,-1170"/>
<text text-anchor="middle" x="108" y="-1148.3" font-family="Times,serif" font-size="14.00">block_size</text>
</g>
<!-- own_flashcards -->
<g id="node23" class="node"><title>own_flashcards</title>
<polygon fill="none" stroke="black" points="216,-1224 0,-1224 0,-1188 216,-1188 216,-1224"/>
<text text-anchor="middle" x="108" y="-1202.3" font-family="Times,serif" font-size="14.00">own_flashcards</text>
</g>
<!-- provided_flashcards -->
<g id="node24" class="node"><title>provided_flashcards</title>
<polygon fill="none" stroke="black" points="216,-1278 0,-1278 0,-1242 216,-1242 216,-1278"/>
<text text-anchor="middle" x="108" y="-1256.3" font-family="Times,serif" font-size="14.00">provided_flashcards</text>
</g>
<!-- software -->
<g id="node25" class="node"><title>software</title>
<polygon fill="none" stroke="black" points="216,-1332 0,-1332 0,-1296 216,-1296 216,-1332"/>
<text text-anchor="middle" x="108" y="-1310.3" font-family="Times,serif" font-size="14.00">software</text>
</g>
<!-- paper -->
<g id="node26" class="node"><title>paper</title>
<polygon fill="none" stroke="black" points="216,-1386 0,-1386 0,-1350 216,-1350 216,-1386"/>
<text text-anchor="middle" x="108" y="-1364.3" font-family="Times,serif" font-size="14.00">paper</text>
</g>
<!-- overlearning -->
<g id="node27" class="node"><title>overlearning</title>
<polygon fill="none" stroke="black" points="216,-1440 0,-1440 0,-1404 216,-1404 216,-1440"/>
<text text-anchor="middle" x="108" y="-1418.3" font-family="Times,serif" font-size="14.00">overlearning</text>
</g>
<!-- testing_effect -->
<g id="node28" class="node"><title>testing_effect</title>
<polygon fill="none" stroke="black" points="216,-1494 0,-1494 0,-1458 216,-1458 216,-1494"/>
<text text-anchor="middle" x="108" y="-1472.3" font-family="Times,serif" font-size="14.00">testing_effect</text>
</g>
<!-- spaced_based_repetition -->
<g id="node29" class="node"><title>spaced_based_repetition</title>
<polygon fill="none" stroke="black" points="216,-1548 0,-1548 0,-1512 216,-1512 216,-1548"/>
<text text-anchor="middle" x="108" y="-1526.3" font-family="Times,serif" font-size="14.00">spaced_based_repetition</text>
</g>
<!-- progressive -->
<g id="node30" class="node"><title>progressive</title>
<polygon fill="none" stroke="black" points="216,-1602 0,-1602 0,-1566 216,-1566 216,-1602"/>
<text text-anchor="middle" x="108" y="-1580.3" font-family="Times,serif" font-size="14.00">progressive</text>
</g>
<!-- pimsleur_system -->
<g id="node31" class="node"><title>pimsleur_system</title>
<polygon fill="none" stroke="black" points="216,-1656 0,-1656 0,-1620 216,-1620 216,-1656"/>
<text text-anchor="middle" x="108" y="-1634.3" font-family="Times,serif" font-size="14.00">pimsleur_system</text>
</g>
<!-- responsive -->
<g id="node32" class="node"><title>responsive</title>
<polygon fill="none" stroke="black" points="216,-1710 0,-1710 0,-1674 216,-1674 216,-1710"/>
<text text-anchor="middle" x="108" y="-1688.3" font-family="Times,serif" font-size="14.00">responsive</text>
</g>
<!-- leitner_system -->
<g id="node33" class="node"><title>leitner_system</title>
<polygon fill="none" stroke="black" points="216,-1764 0,-1764 0,-1728 216,-1728 216,-1764"/>
<text text-anchor="middle" x="108" y="-1742.3" font-family="Times,serif" font-size="14.00">leitner_system</text>
</g>
<!-- adaptive -->
<g id="node34" class="node"><title>adaptive</title>
<polygon fill="none" stroke="black" points="216,-1818 0,-1818 0,-1782 216,-1782 216,-1818"/>
<text text-anchor="middle" x="108" y="-1796.3" font-family="Times,serif" font-size="14.00">adaptive</text>
</g>
<!-- supermemo -->
<g id="node35" class="node"><title>supermemo</title>
<polygon fill="none" stroke="black" points="216,-1872 0,-1872 0,-1836 216,-1836 216,-1872"/>
<text text-anchor="middle" x="108" y="-1850.3" font-family="Times,serif" font-size="14.00">supermemo</text>
</g>
<!-- cap_system -->
<g id="node36" class="node"><title>cap_system</title>
<polygon fill="none" stroke="black" points="216,-1926 0,-1926 0,-1890 216,-1890 216,-1926"/>
<text text-anchor="middle" x="108" y="-1904.3" font-family="Times,serif" font-size="14.00">cap_system</text>
</g>
<!-- irt -->
<g id="node37" class="node"><title>irt</title>
<polygon fill="none" stroke="black" points="216,-1980 0,-1980 0,-1944 216,-1944 216,-1980"/>
<text text-anchor="middle" x="108" y="-1958.3" font-family="Times,serif" font-size="14.00">irt</text>
</g>
<!-- elo_rating_system -->
<g id="node38" class="node"><title>elo_rating_system</title>
<polygon fill="none" stroke="black" points="216,-2034 0,-2034 0,-1998 216,-1998 216,-2034"/>
<text text-anchor="middle" x="108" y="-2012.3" font-family="Times,serif" font-size="14.00">elo_rating_system</text>
</g>
<!-- probabilistic -->
<g id="node39" class="node"><title>probabilistic</title>
<polygon fill="none" stroke="black" points="216,-2088 0,-2088 0,-2052 216,-2052 216,-2088"/>
<text text-anchor="middle" x="108" y="-2066.3" font-family="Times,serif" font-size="14.00">probabilistic</text>
</g>
<!-- adjustment_per_bucket -->
<g id="node40" class="node"><title>adjustment_per_bucket</title>
<polygon fill="none" stroke="black" points="216,-2142 0,-2142 0,-2106 216,-2106 216,-2142"/>
<text text-anchor="middle" x="108" y="-2120.3" font-family="Times,serif" font-size="14.00">adjustment_per_bucket</text>
</g>
<!-- adjustment_per_user -->
<g id="node41" class="node"><title>adjustment_per_user</title>
<polygon fill="none" stroke="black" points="216,-2196 0,-2196 0,-2160 216,-2160 216,-2196"/>
<text text-anchor="middle" x="108" y="-2174.3" font-family="Times,serif" font-size="14.00">adjustment_per_user</text>
</g>
<!-- adjustment_per_user_group -->
<g id="node42" class="node"><title>adjustment_per_user_group</title>
<polygon fill="none" stroke="black" points="216,-2250 0,-2250 0,-2214 216,-2214 216,-2250"/>
<text text-anchor="middle" x="108" y="-2228.3" font-family="Times,serif" font-size="14.00">adjustment_per_user_group</text>
</g>
<!-- age -->
<g id="node43" class="node"><title>age</title>
<polygon fill="none" stroke="black" points="216,-2304 0,-2304 0,-2268 216,-2268 216,-2304"/>
<text text-anchor="middle" x="108" y="-2282.3" font-family="Times,serif" font-size="14.00">age</text>
</g>
<!-- country -->
<g id="node44" class="node"><title>country</title>
<polygon fill="none" stroke="black" points="216,-2358 0,-2358 0,-2322 216,-2322 216,-2358"/>
<text text-anchor="middle" x="108" y="-2336.3" font-family="Times,serif" font-size="14.00">country</text>
</g>
<!-- context -->
<g id="node45" class="node"><title>context</title>
<polygon fill="none" stroke="black" points="216,-2412 0,-2412 0,-2376 216,-2376 216,-2412"/>
<text text-anchor="middle" x="108" y="-2390.3" font-family="Times,serif" font-size="14.00">context</text>
</g>
<!-- adjustment_per_item -->
<g id="node46" class="node"><title>adjustment_per_item</title>
<polygon fill="none" stroke="black" points="216,-2466 0,-2466 0,-2430 216,-2430 216,-2466"/>
<text text-anchor="middle" x="108" y="-2444.3" font-family="Times,serif" font-size="14.00">adjustment_per_item</text>
</g>
<!-- feedback -->
<g id="node47" class="node"><title>feedback</title>
<polygon fill="none" stroke="black" points="216,-2520 0,-2520 0,-2484 216,-2484 216,-2520"/>
<text text-anchor="middle" x="108" y="-2498.3" font-family="Times,serif" font-size="14.00">feedback</text>
</g>
<!-- number_of_items_left -->
<g id="node48" class="node"><title>number_of_items_left</title>
<polygon fill="none" stroke="black" points="216,-2574 0,-2574 0,-2538 216,-2538 216,-2574"/>
<text text-anchor="middle" x="108" y="-2552.3" font-family="Times,serif" font-size="14.00">number_of_items_left</text>
</g>
<!-- response_history -->
<g id="node49" class="node"><title>response_history</title>
<polygon fill="none" stroke="black" points="216,-2628 0,-2628 0,-2592 216,-2592 216,-2628"/>
<text text-anchor="middle" x="108" y="-2606.3" font-family="Times,serif" font-size="14.00">response_history</text>
</g>
<!-- estimated_chance -->
<g id="node50" class="node"><title>estimated_chance</title>
<polygon fill="none" stroke="black" points="216,-2682 0,-2682 0,-2646 216,-2646 216,-2682"/>
<text text-anchor="middle" x="108" y="-2660.3" font-family="Times,serif" font-size="14.00">estimated_chance</text>
</g>
<!-- estimated_number_of_items -->
<g id="node51" class="node"><title>estimated_number_of_items</title>
<polygon fill="none" stroke="black" points="216,-2736 0,-2736 0,-2700 216,-2700 216,-2736"/>
<text text-anchor="middle" x="108" y="-2714.3" font-family="Times,serif" font-size="14.00">estimated_number_of_items</text>
</g>
<!-- practical_research -->
<g id="node52" class="node"><title>practical_research</title>
<polygon fill="none" stroke="black" points="216,-2790 0,-2790 0,-2754 216,-2754 216,-2790"/>
<text text-anchor="middle" x="108" y="-2768.3" font-family="Times,serif" font-size="14.00">practical_research</text>
</g>
<!-- gamification -->
<g id="node53" class="node"><title>gamification</title>
<polygon fill="none" stroke="black" points="216,-2844 0,-2844 0,-2808 216,-2808 216,-2844"/>
<text text-anchor="middle" x="108" y="-2822.3" font-family="Times,serif" font-size="14.00">gamification</text>
</g>
<!-- concept_map -->
<g id="node54" class="node"><title>concept_map</title>
<polygon fill="none" stroke="black" points="216,-2898 0,-2898 0,-2862 216,-2862 216,-2898"/>
<text text-anchor="middle" x="108" y="-2876.3" font-family="Times,serif" font-size="14.00">concept_map</text>
</g>
<!-- knowledge_assembly_theory -->
<g id="node55" class="node"><title>knowledge_assembly_theory</title>
<polygon fill="none" stroke="black" points="216,-2952 0,-2952 0,-2916 216,-2916 216,-2952"/>
<text text-anchor="middle" x="108" y="-2930.3" font-family="Times,serif" font-size="14.00">knowledge_assembly_theory</text>
</g>
<!-- conditions -->
<g id="node56" class="node"><title>conditions</title>
<polygon fill="none" stroke="black" points="216,-3006 0,-3006 0,-2970 216,-2970 216,-3006"/>
<text text-anchor="middle" x="108" y="-2984.3" font-family="Times,serif" font-size="14.00">conditions</text>
</g>
<!-- map_shock -->
<g id="node57" class="node"><title>map_shock</title>
<polygon fill="none" stroke="black" points="216,-3060 0,-3060 0,-3024 216,-3024 216,-3060"/>
<text text-anchor="middle" x="108" y="-3038.3" font-family="Times,serif" font-size="14.00">map_shock</text>
</g>
<!-- progressive_differentiation -->
<g id="node58" class="node"><title>progressive_differentiation</title>
<polygon fill="none" stroke="black" points="216,-3114 0,-3114 0,-3078 216,-3078 216,-3114"/>
<text text-anchor="middle" x="108" y="-3092.3" font-family="Times,serif" font-size="14.00">progressive_differentiation</text>
</g>
<!-- active_encoding -->
<g id="node59" class="node"><title>active_encoding</title>
<polygon fill="none" stroke="black" points="216,-3168 0,-3168 0,-3132 216,-3132 216,-3168"/>
<text text-anchor="middle" x="108" y="-3146.3" font-family="Times,serif" font-size="14.00">active_encoding</text>
</g>
<!-- assessment -->
<g id="node60" class="node"><title>assessment</title>
<polygon fill="none" stroke="black" points="216,-3222 0,-3222 0,-3186 216,-3186 216,-3222"/>
<text text-anchor="middle" x="108" y="-3200.3" font-family="Times,serif" font-size="14.00">assessment</text>
</g>
<!-- visualisation_tools -->
<g id="node61" class="node"><title>visualisation_tools</title>
<polygon fill="none" stroke="black" points="216,-3276 0,-3276 0,-3240 216,-3240 216,-3276"/>
<text text-anchor="middle" x="108" y="-3254.3" font-family="Times,serif" font-size="14.00">visualisation_tools</text>
</g>
<!-- alternative_visual_mapping -->
<g id="node62" class="node"><title>alternative_visual_mapping</title>
<polygon fill="none" stroke="black" points="216,-3330 0,-3330 0,-3294 216,-3294 216,-3330"/>
<text text-anchor="middle" x="108" y="-3308.3" font-family="Times,serif" font-size="14.00">alternative_visual_mapping</text>
</g>
<!-- flashmap -->
<g id="node63" class="node"><title>flashmap</title>
<polygon fill="none" stroke="black" points="216,-3384 0,-3384 0,-3348 216,-3348 216,-3384"/>
<text text-anchor="middle" x="108" y="-3362.3" font-family="Times,serif" font-size="14.00">flashmap</text>
</g>
<!-- tutorial -->
<g id="node64" class="node"><title>tutorial</title>
<polygon fill="none" stroke="black" points="216,-3438 0,-3438 0,-3402 216,-3402 216,-3438"/>
<text text-anchor="middle" x="108" y="-3416.3" font-family="Times,serif" font-size="14.00">tutorial</text>
</g>
<!-- size_of_map -->
<g id="node65" class="node"><title>size_of_map</title>
<polygon fill="none" stroke="black" points="216,-3492 0,-3492 0,-3456 216,-3456 216,-3492"/>
<text text-anchor="middle" x="108" y="-3470.3" font-family="Times,serif" font-size="14.00">size_of_map</text>
</g>
<!-- results -->
<g id="node66" class="node"><title>results</title>
<polygon fill="none" stroke="black" points="216,-3546 0,-3546 0,-3510 216,-3510 216,-3546"/>
<text text-anchor="middle" x="108" y="-3524.3" font-family="Times,serif" font-size="14.00">results</text>
</g>
<!-- technology_acceptance_model -->
<g id="node67" class="node"><title>technology_acceptance_model</title>
<polygon fill="none" stroke="black" points="216,-3600 0,-3600 0,-3564 216,-3564 216,-3600"/>
<text text-anchor="middle" x="108" y="-3578.3" font-family="Times,serif" font-size="14.00">technology_acceptance_model</text>
</g>
<!-- perceived_usefulness -->
<g id="node68" class="node"><title>perceived_usefulness</title>
<polygon fill="none" stroke="black" points="216,-3654 0,-3654 0,-3618 216,-3618 216,-3654"/>
<text text-anchor="middle" x="108" y="-3632.3" font-family="Times,serif" font-size="14.00">perceived_usefulness</text>
</g>
<!-- perceived_ease_of_use -->
<g id="node69" class="node"><title>perceived_ease_of_use</title>
<polygon fill="none" stroke="black" points="216,-3708 0,-3708 0,-3672 216,-3672 216,-3708"/>
<text text-anchor="middle" x="108" y="-3686.3" font-family="Times,serif" font-size="14.00">perceived_ease_of_use</text>
</g>
<!-- learning_gain -->
<g id="node70" class="node"><title>learning_gain</title>
<polygon fill="none" stroke="black" points="216,-3762 0,-3762 0,-3726 216,-3726 216,-3762"/>
<text text-anchor="middle" x="108" y="-3740.3" font-family="Times,serif" font-size="14.00">learning_gain</text>
</g>
<!-- PQ4R -->
<g id="node71" class="node"><title>PQ4R</title>
<polygon fill="none" stroke="black" points="216,-3816 0,-3816 0,-3780 216,-3780 216,-3816"/>
<text text-anchor="middle" x="108" y="-3794.3" font-family="Times,serif" font-size="14.00">PQ4R</text>
</g>
<!-- Preview -->
<g id="node72" class="node"><title>Preview</title>
<polygon fill="none" stroke="black" points="216,-3870 0,-3870 0,-3834 216,-3834 216,-3870"/>
<text text-anchor="middle" x="108" y="-3848.3" font-family="Times,serif" font-size="14.00">Preview</text>
</g>
<!-- Quesions -->
<g id="node73" class="node"><title>Quesions</title>
<polygon fill="none" stroke="black" points="216,-3924 0,-3924 0,-3888 216,-3888 216,-3924"/>
<text text-anchor="middle" x="108" y="-3902.3" font-family="Times,serif" font-size="14.00">Quesions</text>
</g>
<!-- Read -->
<g id="node74" class="node"><title>Read</title>
<polygon fill="none" stroke="black" points="216,-3978 0,-3978 0,-3942 216,-3942 216,-3978"/>
<text text-anchor="middle" x="108" y="-3956.3" font-family="Times,serif" font-size="14.00">Read</text>
</g>
<!-- Reflect -->
<g id="node75" class="node"><title>Reflect</title>
<polygon fill="none" stroke="black" points="216,-4032 0,-4032 0,-3996 216,-3996 216,-4032"/>
<text text-anchor="middle" x="108" y="-4010.3" font-family="Times,serif" font-size="14.00">Reflect</text>
</g>
<!-- Recite -->
<g id="node76" class="node"><title>Recite</title>
<polygon fill="none" stroke="black" points="216,-4086 0,-4086 0,-4050 216,-4050 216,-4086"/>
<text text-anchor="middle" x="108" y="-4064.3" font-family="Times,serif" font-size="14.00">Recite</text>
</g>
<!-- Review -->
<g id="node77" class="node"><title>Review</title>
<polygon fill="none" stroke="black" points="216,-4140 0,-4140 0,-4104 216,-4104 216,-4140"/>
<text text-anchor="middle" x="108" y="-4118.3" font-family="Times,serif" font-size="14.00">Review</text>
</g>
</g>
</svg>
